Coordinates
version=1
nRows=6
nColumns=46
inDegrees=yes

Units are S.I. units (second, meters, Newtons, ...)
Angles are in degrees.

endheader
time	pelvis_tilt	pelvis_list	pelvis_rotation	pelvis_tx	pelvis_ty	pelvis_tz	bb_angle	bb_tx	bb_ty	bb_tz	hip_flexion_r	hip_adduction_r	hip_rotation_r	knee_angle_r	knee_angle_r_beta	ankle_angle_r	subtalar_angle_r	mtp_angle_r	crank_angle_r	hip_flexion_l	hip_adduction_l	hip_rotation_l	knee_angle_l	knee_angle_l_beta	ankle_angle_l	subtalar_angle_l	mtp_angle_l	crank_angle_l	lumbar_extension	lumbar_bending	lumbar_rotation	arm_flex_r	arm_add_r	arm_rot_r	elbow_flex_r	pro_sup_r	wrist_flex_r	wrist_dev_r	arm_flex_l	arm_add_l	arm_rot_l	elbow_flex_l	pro_sup_l	wrist_flex_l	wrist_dev_l
      5.00500000	    -17.07423111	      2.69282790	     -3.88470788	      0.15885558	      1.15086534	     -0.24018882	      0.00000000	      0.50000000	      0.00000000	      0.25000000	     49.26071189	     -1.66452700	      2.96396879	     38.01533900	      0.66349283	      4.71924956	     -4.55498106	      0.00000000	      0.00000000	     86.08999129	     -6.53853931	      3.14201724	    111.72746120	      1.95001206	    -20.51126429	    -10.93338162	      0.00000000	      0.00000000	    -62.56645173	     -3.81705505	     -3.05160466	     89.76411746	    -14.76816737	     33.12538747	     63.61843132	     25.21662270	      0.00000000	      0.00000000	     89.31230895	    -25.22465160	     31.80090608	     68.23373813	     39.86007791	      0.00000000	      0.00000000
      5.01000000	    -17.21301867	      2.97308170	     -3.41841504	      0.15948634	      1.15148950	     -0.23944705	      0.00000000	      0.50000000	      0.00000000	      0.25000000	     48.20194003	     -2.31084693	      2.44714553	     36.95328136	      0.64495643	      4.36715962	     -4.14167146	      0.00000000	      0.00000000	     87.41788274	     -6.24328564	      3.04916336	    112.29529525	      1.95992264	    -20.24271687	    -10.87357430	      0.00000000	      0.00000000	    -62.53843586	     -4.13572629	     -3.65581243	     89.75093622	    -14.99383580	     33.09600620	     63.56990650	     25.23559188	      0.00000000	      0.00000000	     89.31789863	    -24.77591241	     31.91503951	     68.42664095	     39.89504986	      0.00000000	      0.00000000
      5.01500000	    -17.07964221	      3.11616069	     -2.65554599	      0.16040021	      1.15265723	     -0.23981884	      0.00000000	      0.50000000	      0.00000000	      0.25000000	     46.89687676	     -3.26338580	      1.20382983	     36.09751584	      0.63002050	      4.07967001	     -3.08642711	      0.00000000	      0.00000000	     88.41393305	     -5.54557975	      3.09587998	    112.78268285	      1.96842915	    -19.78350470	    -10.22646652	      0.00000000	      0.00000000	    -62.81003773	     -4.05930502	     -3.89544848	     89.74876997	    -15.90545966	     33.44983336	     63.48155274	     25.30988224	      0.00000000	      0.00000000	     89.30465421	    -23.83379322	     31.98372527	     68.72407737	     39.91118421	      0.00000000	      0.00000000
      5.02000000	    -17.15883113	      3.40217165	     -2.05786925	      0.16098796	      1.15326716	     -0.23963054	      0.00000000	      0.50000000	      0.00000000	      0.25000000	     46.02140307	     -4.11526422	      0.28368610	     35.56614982	      0.62074642	      4.18784587	     -1.97181931	      0.00000000	      0.00000000	     89.55103631	     -5.07000412	      2.94478102	    113.13839203	      1.97463745	    -19.25845095	     -9.76611086	      0.00000000	      0.00000000	    -62.87059191	     -4.35717914	     -3.72660830	     89.73367527	    -18.31177671	     34.64548139	     64.67908694	     25.88577649	      0.00000000	      0.00000000	     89.33786906	    -21.53471630	     31.47999359	     67.98929801	     39.50526476	      0.00000000	      0.00000000
      5.02500000	    -17.15788097	      3.68927723	     -1.38136150	      0.16157752	      1.15427092	     -0.23960933	      0.00000000	      0.50000000	      0.00000000	      0.25000000	     45.16634286	     -5.03761729	     -0.76260583	     35.24557183	      0.61515128	      4.06513469	     -1.15331056	      0.00000000	      0.00000000	     90.48377217	     -4.60090210	      2.66583195	    113.31321766	      1.97768873	    -18.75183097	     -9.42491202	      0.00000000	      0.00000000	    -63.03299600	     -4.45640792	     -4.16944053	     89.72644350	    -18.94369069	     34.75218544	     64.61637233	     25.94392705	      0.00000000	      0.00000000	     89.35722990	    -20.71732432	     31.62035968	     68.15159355	     39.48525540	      0.00000000	      0.00000000
      5.03000000	    -17.14053949	      4.04456404	     -0.72658613	      0.16220173	      1.15509049	     -0.23966709	      0.00000000	      0.50000000	      0.00000000	      0.25000000	     44.45413214	     -6.05104698	     -1.85107017	     35.23617588	      0.61498728	      4.13684553	      0.03379917	      0.00000000	      0.00000000	     91.29380930	     -4.04775968	      2.33931823	    113.39079388	      1.97904269	    -18.16095131	     -9.04217921	      0.00000000	      0.00000000	    -63.19428684	     -4.60718396	     -4.50811224	     89.71829794	    -19.99173718	     35.14095086	     64.86166363	     26.10337237	      0.00000000	      0.00000000	     89.38410601	    -19.60085737	     31.55100340	     68.11125166	     39.37757914	      0.00000000	      0.00000000
